<svg width="18" height="19" viewBox="0 0 18 19" fill="none" xmlns="http://www.w3.org/2000/svg">
<path d="M11.6016 5.10156L6.64453 10.0586L6.43359 11.8164L8.19141 11.6055L13.1484 6.64844L11.6016 5.10156ZM14.9414 7.24609L14.3438 7.84375L9 13.1875L6.22266 13.5391L4.5 13.75L4.71094 12.0273L5.0625 9.25L10.4062 3.90625L11.0039 3.30859L11.6016 2.71094L12.8672 1.44531L14.0625 0.25L15.2227 1.44531L16.8047 3.02734L18 4.1875L16.8047 5.38281L15.5391 6.64844L14.9414 7.24609ZM14.3438 5.48828L15.6094 4.1875L14.0625 2.64062L12.7617 3.90625L14.3438 5.48828ZM0.84375 2.5H7.03125H7.875V4.1875H7.03125H1.6875V16.5625H14.0625V11.2188V10.375H15.75V11.2188V17.4062V18.25H14.9062H0.84375H0V17.4062V3.34375V2.5H0.84375Z" fill="#141414"/>
</svg>
