<svg width="24" height="19" viewBox="0 0 24 19" fill="none" xmlns="http://www.w3.org/2000/svg">
<path d="M11.4375 4.75C11.4375 3.76562 10.875 2.85156 10.0312 2.32422C9.15234 1.83203 8.0625 1.83203 7.21875 2.32422C6.33984 2.85156 5.8125 3.76562 5.8125 4.75C5.8125 5.76953 6.33984 6.68359 7.21875 7.21094C8.0625 7.70312 9.15234 7.70312 10.0312 7.21094C10.875 6.68359 11.4375 5.76953 11.4375 4.75ZM3.03516 16.5625H14.2148L12.9844 12.625H4.23047L3.03516 16.5625ZM14.25 10.9375L15.9727 16.5625L16.5 18.25H14.707H2.50781H0.75L1.24219 16.5625L3 10.9375H8.625H14.25ZM8.625 0.25C10.207 0.25 11.6836 1.12891 12.4922 2.5C13.3008 3.90625 13.3008 5.62891 12.4922 7C11.6836 8.40625 10.207 9.25 8.625 9.25C7.00781 9.25 5.53125 8.40625 4.72266 7C3.91406 5.62891 3.91406 3.90625 4.72266 2.5C5.53125 1.12891 7.00781 0.25 8.625 0.25ZM18.4688 12.0625V11.2188V8.96875H16.2188H15.375V7.28125H16.2188H18.4688V5.03125V4.1875H20.1562V5.03125V7.28125H22.4062H23.25V8.96875H22.4062H20.1562V11.2188V12.0625H18.4688Z" fill="#141414"/>
</svg>
