<svg width="18" height="19" viewBox="0 0 18 19" fill="none" xmlns="http://www.w3.org/2000/svg">
<path d="M10.6875 13.8906L9.5625 13.2578C7.66406 12.168 6.08203 10.5859 4.99219 8.6875L4.35938 7.5625L5.27344 6.64844L6.43359 5.48828L5.13281 2.18359L1.6875 2.78125C1.82812 10.3398 7.91016 16.4219 15.4688 16.5625L16.0664 13.1172L12.7617 11.8164L11.6016 12.9766L10.6875 13.8906ZM12.375 9.8125L18 12.0625L16.875 18.25H15.75C7.03125 18.25 0 11.2188 0 2.5V1.375L6.1875 0.25L8.4375 5.875L6.46875 7.84375C7.41797 9.49609 8.75391 10.832 10.4062 11.7812L12.375 9.8125Z" fill="#141414"/>
</svg>
